<svg xmlns="http://www.w3.org/2000/svg" width="231.94" height="162.969" viewBox="0 0 231.94 162.969">
  <defs>
    <style>
      .cls-1 {
        fill: #fff;
        fill-rule: evenodd;
      }
    </style>
  </defs>
  <path id="Dev" class="cls-1" d="M1476.91,180.9V161.08h14.28c37.08,0,37.08-57.58,0-57.69H1457.1V180.9h19.81Zm14.17-37.648h-14.17V121.107c4.54,0,9.52-.111,14.17,0C1502.59,121.217,1501.93,143.253,1491.08,143.253Zm79.03-6.423-30.33-33.662h-7.31V180.9h20.26V146.353l16.38,17.274h2.22l16.49-17.274V180.9h20.26V103.168h-7.09Zm86.18,27.351c-5.76,0-11.84-3.1-11.84-9.412V103.39h-18.93V155.1c0,17.052,14.94,26.907,30.77,26.907,15.94,0,30.66-9.855,30.66-26.907V103.39h-18.93v51.379C1668.02,161.08,1662.05,164.181,1656.29,164.181ZM1455.01,88.712h17.6c16.57,0,28.43-10.639,28.43-34.836,0-10.451-2.26-18.83-6.31-24.667-5.08-7.344-12.8-10.168-22.4-10.168h-17.32V88.712Zm9.41-61.1h7.53c7.34,0,12.24,2.165,15.25,6.685,3.01,4.425,4.33,10.827,4.33,19.583,0,14.593-4.42,26.268-19.29,26.268h-7.82V27.608Zm81.71,37.849c0.18-7.626-.38-15.912-4.43-22.22-3.1-4.9-7.9-7.626-14.3-7.626-12.62,0-19.77,11.392-19.77,27.21,0,13.84,5.84,27.021,19.95,27.021a17.958,17.958,0,0,0,11.3-3.766c3.29-2.73,5.83-7.061,6.78-12.993h-8.19c-1.13,5.461-4.61,9.039-9.89,9.039-7.71,0-11.2-7.72-11.2-16.665h29.75ZM1516.38,58.3c0.19-9.415,4.43-15.723,10.92-15.723,7.25,0,10.36,7.438,10.54,15.723h-21.46Zm71.31-21.56h-8.37l-10.36,40.108-10.82-40.108h-8.47l15.43,51.971h7.91Z" transform="translate(-1455 -19.031)"/>
</svg>
